<svg width="480" height="234" viewBox="0 0 480 234" fill="none" xmlns="http://www.w3.org/2000/svg">
<path d="M93 170.6C98.7333 170.6 103.333 170.267 106.8 169.6C110.4 168.933 113.067 167.8 114.8 166.2C116.667 164.467 117.867 162.067 118.4 159L121 143.6H127.6V185H35V174.8C43.1333 170 50.7333 165.267 57.8 160.6C64.8667 155.933 71.2 151.2 76.8 146.4C82.5333 141.467 87.4 136.4 91.4 131.2C95.5333 126 98.6667 120.467 100.8 114.6C103.067 108.6 104.2 102.133 104.2 95.2C104.2 88.5333 103.2 83.2 101.2 79.2C99.2 75.0667 96.3333 72.0667 92.6 70.2C88.8667 68.3333 84.4 67.4 79.2 67.4C73.4667 67.4 68.4667 68.3333 64.2 70.2C60.0667 71.9333 56.5333 74.2 53.6 77C50.8 79.8 48.4667 82.7333 46.6 85.8C46.7333 85 47.0667 83.9333 47.6 82.6C48.1333 81.1333 48.8667 79.6667 49.8 78.2C50.7333 76.7333 51.7333 75.4667 52.8 74.4C54 73.3333 55.2667 72.7333 56.6 72.6V95.8H39V78.6C41.2667 75.9333 44.4667 73.2667 48.6 70.6C52.7333 67.9333 57.5333 65.7333 63 64C68.4667 62.2667 74.3333 61.4 80.6 61.4C89 61.4 96.4 62.6667 102.8 65.2C109.2 67.7333 114.133 71.5333 117.6 76.6C121.2 81.5333 123 87.8 123 95.4C123 101.8 121.4 108.133 118.2 114.4C115 120.533 110.6 126.533 105 132.4C99.5333 138.133 93.2667 143.667 86.2 149C79.2667 154.333 71.9333 159.4 64.2 164.2C56.6 168.867 49.0667 173.267 41.6 177.4C41.3333 177.133 41.6667 176.6 42.6 175.8C43.6667 174.867 44.8 173.867 46 172.8C47.3333 171.733 48.2 171 48.6 170.6H93ZM173.314 127.8H231.514L231.714 134.6H170.514L173.314 127.8ZM198.514 52.4L203.514 53.2L161.114 174.4C161.114 175.2 161.447 175.933 162.114 176.6C162.781 177.267 163.981 177.867 165.714 178.4C167.581 178.8 170.247 179 173.714 179H179.314V185H138.914V179H140.314C143.381 179 146.247 178.067 148.914 176.2C151.714 174.333 153.847 171.333 155.314 167.2L199.114 43H213.114L259.114 172.2C260.181 175.133 261.781 177 263.914 177.8C266.181 178.6 268.781 179 271.714 179H272.714V185H223.914V179H227.114C229.381 179 231.647 178.933 233.914 178.8C236.314 178.533 238.247 178.267 239.714 178C241.314 177.6 242.114 177.2 242.114 176.8L198.514 52.4ZM281.052 185V179H283.252C285.785 179 288.185 178.6 290.452 177.8C292.718 176.867 294.585 175.467 296.052 173.6C297.518 171.733 298.252 169.267 298.252 166.2V56.2C298.252 54.2 297.518 52.7333 296.052 51.8C294.585 50.7333 292.718 50 290.452 49.6C288.185 49.2 285.785 49 283.252 49H281.052V43H322.852L364.452 173.2H360.852L404.852 43H446.652V49H445.452C442.652 49 440.052 49.2 437.652 49.6C435.252 50 433.252 50.7333 431.652 51.8C430.185 52.7333 429.452 54.2 429.452 56.2V171.8C429.452 173.667 430.185 175.133 431.652 176.2C433.118 177.267 435.052 178 437.452 178.4C439.985 178.8 442.652 179 445.452 179H446.652V185H393.652V179H395.452C397.718 179 399.985 178.933 402.252 178.8C404.652 178.667 406.652 178.467 408.252 178.2C409.985 177.8 410.852 177.4 410.852 177V43.4L412.852 43.8L364.852 185.4H352.252L304.252 44.2L306.652 43.8V172.2C306.652 174.067 307.252 175.533 308.452 176.6C309.785 177.533 311.585 178.2 313.852 178.6C316.118 178.867 318.652 179 321.452 179H324.652V185H281.052Z" fill="white"/>
</svg>
